<svg width="14" height="14" viewBox="0 0 14 14" fill="none" xmlns="http://www.w3.org/2000/svg">
<path d="M4.11727 0C1.85818 0 0 1.85182 0 4.11727V9.88273C0 12.1418 1.85182 14 4.11727 14H9.88273C12.1418 14 14 12.1482 14 9.88273V4.11727C14 1.85818 12.1482 0 9.88273 0H4.11727ZM4.11727 1.27273H9.88273C11.4545 1.27273 12.7273 2.54545 12.7273 4.11727V9.88273C12.7273 11.4545 11.4545 12.7273 9.88273 12.7273H4.11727C2.54545 12.7273 1.27273 11.4545 1.27273 9.88273V4.11727C1.27273 2.54545 2.54545 1.27273 4.11727 1.27273ZM10.7609 2.66636C10.4427 2.66636 10.1818 2.92091 10.1818 3.24545C10.1818 3.57 10.4364 3.82455 10.7609 3.82455C11.0855 3.82455 11.34 3.57 11.34 3.24545C11.34 2.92091 11.0855 2.66636 10.7609 2.66636ZM7 3.18182C4.9 3.18182 3.18182 4.9 3.18182 7C3.18182 9.1 4.9 10.8182 7 10.8182C9.1 10.8182 10.8182 9.1 10.8182 7C10.8182 4.9 9.1 3.18182 7 3.18182ZM7 4.45455C8.41273 4.45455 9.54545 5.58727 9.54545 7C9.54545 8.41273 8.41273 9.54545 7 9.54545C5.58727 9.54545 4.45455 8.41273 4.45455 7C4.45455 5.58727 5.58727 4.45455 7 4.45455Z" fill="black"/>
</svg>
