<svg width="15" height="15" viewBox="0 0 15 15" fill="none" xmlns="http://www.w3.org/2000/svg">
<path d="M4.41136 0C1.99091 0 0 1.98409 0 4.41136V10.5886C0 13.0091 1.98409 15 4.41136 15H10.5886C13.0091 15 15 13.0159 15 10.5886V4.41136C15 1.99091 13.0159 0 10.5886 0H4.41136ZM4.41136 1.36364H10.5886C12.2727 1.36364 13.6364 2.72727 13.6364 4.41136V10.5886C13.6364 12.2727 12.2727 13.6364 10.5886 13.6364H4.41136C2.72727 13.6364 1.36364 12.2727 1.36364 10.5886V4.41136C1.36364 2.72727 2.72727 1.36364 4.41136 1.36364ZM11.5295 2.85682C11.1886 2.85682 10.9091 3.12955 10.9091 3.47727C10.9091 3.825 11.1818 4.09773 11.5295 4.09773C11.8773 4.09773 12.15 3.825 12.15 3.47727C12.15 3.12955 11.8773 2.85682 11.5295 2.85682ZM7.5 3.40909C5.25 3.40909 3.40909 5.25 3.40909 7.5C3.40909 9.75 5.25 11.5909 7.5 11.5909C9.75 11.5909 11.5909 9.75 11.5909 7.5C11.5909 5.25 9.75 3.40909 7.5 3.40909ZM7.5 4.77273C9.01364 4.77273 10.2273 5.98636 10.2273 7.5C10.2273 9.01364 9.01364 10.2273 7.5 10.2273C5.98636 10.2273 4.77273 9.01364 4.77273 7.5C4.77273 5.98636 5.98636 4.77273 7.5 4.77273Z" fill="white"/>
</svg>
