<svg width="21" height="15" viewBox="0 0 21 15" fill="none" xmlns="http://www.w3.org/2000/svg">
<path d="M2.19662 -1.64384e-06L18.8034 -1.92034e-07C20.016 0.00103326 20.999 0.969275 21 2.16382L21 12.8362C20.9989 14.0307 20.016 14.999 18.8034 15L2.19661 15C0.983967 14.999 0.00104972 14.0307 7.85174e-07 12.8362L1.71818e-06 2.16382C0.00105086 0.969274 0.983969 0.00103159 2.19662 -1.64384e-06ZM6.10205 7.4969L0.878017 3.4586L0.878016 12.4921L6.10205 7.4969ZM18.8034 0.865941L2.19662 0.865939C1.46861 0.865939 0.879068 1.44771 0.879068 2.16382L0.879068 2.35809L9.33194 8.89398C9.96763 9.38275 10.8603 9.38275 11.496 8.89191L20.1209 2.35705L20.1209 2.16485C20.1209 1.44771 19.5303 0.866974 18.8034 0.866974L18.8034 0.865941ZM14.7427 7.5248L20.1209 12.5096L20.1209 3.44826L14.7416 7.52377L14.7427 7.5248ZM2.19766 14.1351L18.8034 14.1351C19.2608 14.1351 19.6856 13.9005 19.9258 13.5172L14.0367 8.06007L12.0342 9.57702C11.0817 10.3107 9.74419 10.3097 8.79065 9.57702L6.79964 8.03837L1.07208 13.5151C1.31126 13.9005 1.73715 14.1361 2.19661 14.1361L2.19766 14.1351Z" fill="white"/>
</svg>
