<svg width="13" height="14" viewBox="0 0 13 14" fill="none" xmlns="http://www.w3.org/2000/svg">
<path d="M0 2.86632C0.0505556 2.74105 0.0433333 2.60105 0.0722222 2.46842C0.151667 2.12947 0.303333 1.84211 0.527222 1.59895C0.895556 1.20105 1.27111 0.795789 1.63944 0.397895C1.885 0.147368 2.17389 0 2.51333 0C2.91056 0 3.25722 0.154737 3.53889 0.456842C4.10222 1.06105 4.65833 1.65789 5.22167 2.26211C5.38778 2.43895 5.525 2.64526 5.58278 2.89579C5.72722 3.52211 5.47444 4.22947 4.84611 4.46526C4.45611 4.60526 4.17444 4.9 4.03722 5.32737C3.965 5.55579 3.965 5.78421 4.03 6.01263C4.20333 6.67579 4.53556 7.24316 4.94 7.75895C5.35889 8.28947 5.83556 8.75368 6.37722 9.12947C6.68778 9.35053 7.02 9.53474 7.38833 9.63789C7.74944 9.74105 8.08889 9.63789 8.39944 9.41684C8.645 9.24 8.775 8.97474 8.88333 8.68737C9.035 8.26737 9.33111 8.03158 9.73556 7.95053C10.1978 7.85474 10.5878 8.02421 10.92 8.37789C11.4833 8.98211 12.0394 9.58632 12.6028 10.1832C12.9206 10.5221 13.0578 10.92 13 11.3916C12.9639 11.6863 12.8483 11.9663 12.6461 12.18C12.2272 12.6368 11.8156 13.0937 11.3894 13.5358C11.1367 13.7937 10.8189 13.9189 10.4794 13.9705C10.4506 13.9705 10.4072 13.9484 10.3928 14H9.72833C9.72833 14 9.71389 13.9779 9.70667 13.9779C9.33111 13.9337 8.97 13.8305 8.61611 13.6979C7.88667 13.4253 7.20778 13.0421 6.55778 12.6C6.08111 12.2758 5.61889 11.9221 5.17833 11.5389C4.81722 11.2221 4.46333 10.9053 4.12389 10.5589C3.84222 10.2716 3.56056 9.96947 3.28611 9.66737C3.03333 9.38 2.78056 9.08526 2.54944 8.78316C2.16667 8.28211 1.79833 7.76632 1.46611 7.22105C1.04722 6.52105 0.671667 5.80632 0.397222 5.02526C0.26 4.62737 0.137222 4.22211 0.0722222 3.80211C0.0505556 3.65474 0.0577778 3.5 0 3.36L0 2.86632Z" fill="black"/>
</svg>
