<svg width="14" height="15" viewBox="0 0 14 15" fill="none" xmlns="http://www.w3.org/2000/svg">
<path d="M0 3.07397C0.0566011 2.93998 0.0449378 2.79166 0.0785554 2.65106C0.164658 2.28908 0.3276 1.97961 0.570813 1.71676C0.969079 1.28687 1.36975 0.859547 1.77076 0.432228C2.02975 0.156526 2.3402 -0.0053706 2.70896 0.000136095C3.13398 0.00674413 3.50824 0.163501 3.8132 0.48913C4.41694 1.13415 5.02103 1.77917 5.62237 2.42638C5.80075 2.61839 5.94757 2.83572 6.01103 3.10334C6.1702 3.77516 5.89817 4.53361 5.21725 4.78215C4.796 4.93597 4.49447 5.24618 4.34765 5.70434C4.27046 5.94516 4.27355 6.1959 4.33701 6.44113C4.52088 7.15149 4.88038 7.75576 5.31947 8.31561C5.76816 8.8872 6.281 9.37803 6.86382 9.787C7.20171 10.0238 7.55916 10.2209 7.94988 10.3292C8.34094 10.4375 8.70318 10.3237 9.03593 10.0917C9.30384 9.90484 9.44311 9.62033 9.55632 9.31379C9.72166 8.86554 10.0379 8.61114 10.4739 8.52523C10.9741 8.42648 11.3933 8.60489 11.7459 8.97935C12.3514 9.6229 12.9507 10.2723 13.5572 10.9148C13.8964 11.2742 14.0494 11.7052 13.9859 12.2077C13.9455 12.5275 13.8192 12.8197 13.6038 13.0539C13.1555 13.5407 12.7102 14.0312 12.2485 14.5029C11.9792 14.7779 11.6375 14.9167 11.2681 14.9717C11.2355 14.9765 11.1933 14.9508 11.1717 15H10.4599C10.451 14.9908 10.4427 14.9747 10.4331 14.9736C10.0307 14.928 9.64345 14.8161 9.26233 14.6762C8.47609 14.3877 7.74714 13.975 7.04872 13.4989C6.53485 13.149 6.03882 12.7731 5.56508 12.3612C5.17711 12.0238 4.79394 11.6817 4.43169 11.3135C4.12605 11.0025 3.82555 10.6857 3.53328 10.3597C3.25748 10.0521 2.99197 9.73487 2.73846 9.4085C2.32339 8.87362 1.92855 8.32075 1.57522 7.73484C1.12447 6.98776 0.717976 6.21646 0.423993 5.38238C0.273743 4.95653 0.144075 4.5248 0.0754681 4.07142C0.0517985 3.9154 0.0593453 3.7513 0.000686073 3.60115V3.07361L0 3.07397Z" fill="white"/>
</svg>
